<?xml version="1.0" standalone="no"?>
<!DOCTYPE svg PUBLIC "-//W3C//DTD SVG 20010904//EN"
 "http://www.w3.org/TR/2001/REC-SVG-20010904/DTD/svg10.dtd">
<svg version="1.0" xmlns="http://www.w3.org/2000/svg"
 width="500.000000pt" height="500.000000pt" viewBox="0 0 500.000000 500.000000"
 preserveAspectRatio="xMidYMid meet">

<g transform="translate(0.000000,500.000000) scale(0.100000,-0.100000)"
fill="#000000" stroke="none">
<path d="M0 2500 l0 -2500 2500 0 2500 0 0 2500 0 2500 -2500 0 -2500 0 0
-2500z m2690 1475 l175 -175 252 0 253 0 0 -253 0 -252 175 -175 c96 -96 175
-179 175 -185 0 -6 -79 -89 -175 -185 l-175 -175 0 -252 0 -253 -253 0 -252 0
-180 -180 -180 -180 -180 180 -180 180 -253 0 -252 0 0 252 0 253 -180 180
-180 180 180 180 180 180 0 252 0 253 253 0 252 0 175 175 c96 96 179 175 185
175 6 0 89 -79 185 -175z m-1095 -2495 l0 -260 -72 0 -72 0 10 30 c7 18 9 118
7 260 l-3 230 65 0 65 0 0 -260z m347 249 c21 -5 50 -20 64 -32 l26 -23 -29
-46 -29 -46 -28 21 c-55 40 -166 32 -166 -12 0 -27 28 -47 95 -66 33 -9 72
-23 88 -31 59 -31 85 -121 52 -184 -51 -98 -219 -129 -331 -59 -52 32 -58 50
-29 89 13 18 26 38 28 44 3 6 17 0 33 -15 41 -37 67 -49 110 -49 38 0 74 22
74 46 0 19 -35 39 -110 64 -81 27 -106 43 -130 83 -48 78 -2 177 97 212 46 17
134 19 185 4z m260 -26 c-4 -21 -7 -114 -7 -208 l0 -170 82 -3 c56 -2 93 2
117 12 l36 15 0 -65 0 -64 -182 0 -183 0 0 260 0 260 72 0 72 0 -7 -37z m606
17 l32 -20 0 -221 c0 -133 4 -228 10 -240 10 -18 7 -19 -70 -19 -77 0 -80 1
-70 19 5 11 10 45 10 75 l0 56 -70 0 c-83 0 -86 -6 -42 -94 l29 -56 -73 0 -73
0 -15 53 c-58 206 9 400 156 454 54 19 138 16 176 -7z m262 -112 c31 -70 59
-130 61 -132 3 -3 31 56 63 130 l58 134 62 0 61 0 -3 -239 c-3 -163 0 -246 8
-260 10 -20 9 -21 -70 -21 -77 0 -80 1 -70 20 6 12 9 69 8 142 l-3 122 -54
-132 c-30 -73 -58 -129 -61 -125 -4 5 -28 60 -54 123 -27 63 -52 119 -57 125
-11 11 -11 -174 0 -232 l8 -43 -71 0 -71 0 0 260 0 261 65 -3 64 -3 56 -127z
m-521 -484 c-10 -13 -10 -17 2 -26 11 -7 11 -11 2 -15 -8 -3 -13 -23 -13 -49
0 -24 -4 -44 -10 -44 -5 0 -10 20 -10 44 0 26 -5 46 -12 49 -9 4 -10 8 -2 14
6 4 13 16 17 26 3 9 14 17 23 17 14 0 14 -2 3 -16z m331 -59 c0 -43 -4 -75
-10 -75 -6 0 -10 32 -10 75 0 43 4 75 10 75 6 0 10 -32 10 -75z m-1032 58
c-27 -4 -28 -6 -28 -69 0 -36 -4 -64 -10 -64 -6 0 -10 28 -10 64 0 63 -1 65
-27 69 -16 2 1 4 37 4 36 0 53 -2 38 -4z m352 -7 c0 -8 6 -17 13 -20 10 -5 10
-7 0 -12 -8 -3 -13 -24 -13 -50 0 -24 -4 -44 -10 -44 -5 0 -10 20 -10 44 0 26
-5 47 -12 50 -10 5 -10 7 0 12 6 3 12 12 12 20 0 8 5 14 10 14 6 0 10 -6 10
-14z m250 -6 c61 -61 -37 -162 -102 -103 -23 20 -24 80 -1 105 22 24 77 24
103 -2z m240 -50 c0 -40 -4 -70 -10 -70 -6 0 -10 30 -10 70 0 40 4 70 10 70 6
0 10 -30 10 -70z m-708 28 c8 -7 18 -21 21 -30 5 -15 0 -18 -38 -18 -46 0 -56
-9 -31 -29 11 -9 20 -9 35 -2 28 15 36 14 21 -4 -16 -20 -54 -19 -74 1 -45 45
16 121 66 82z m138 -3 c10 -12 6 -13 -24 -8 -47 7 -47 -12 0 -27 28 -9 34 -17
32 -33 -4 -28 -58 -36 -78 -13 -14 18 0 22 17 5 13 -13 43 -5 43 10 0 6 -11
13 -25 17 -35 9 -51 30 -35 49 16 19 54 19 70 0z m690 0 c10 -12 6 -13 -24 -8
-47 7 -47 -12 0 -27 28 -9 34 -17 32 -33 -4 -28 -58 -36 -78 -13 -14 18 0 22
17 5 13 -13 43 -5 43 10 0 6 -11 13 -25 17 -35 9 -51 30 -35 49 16 19 54 19
70 0z m220 -41 l0 -51 -37 -1 c-62 -2 -90 39 -58 85 12 17 25 22 55 20 l40 -1
0 -52z m122 45 c10 -6 19 -5 23 1 9 15 31 12 49 -6 17 -17 22 -94 7 -94 -6 0
-11 19 -13 43 -2 34 -7 42 -23 42 -16 0 -21 -8 -23 -42 -2 -24 -7 -43 -12 -43
-5 0 -10 19 -12 43 -2 35 -7 43 -25 45 -21 3 -23 -1 -23 -42 0 -25 -4 -46 -10
-46 -5 0 -10 24 -10 53 0 50 1 52 27 54 15 0 35 -3 45 -8z"/>
<path d="M2335 3930 l-170 -170 -242 0 -243 0 0 -242 0 -243 -172 -172 -173
-173 173 -173 172 -172 0 -238 0 -237 237 0 238 0 172 -172 173 -173 173 173
172 172 243 0 242 0 0 243 0 242 170 170 170 170 -170 170 -170 170 0 243 0
242 -242 0 -243 0 -170 170 -170 170 -170 -170z m320 -120 l150 -150 207 0
208 0 0 -207 0 -208 152 -152 153 -153 -153 -153 -152 -152 0 -213 0 -212
-212 0 -213 0 -147 -147 -148 -148 -147 147 -148 148 -215 2 -215 3 -3 215 -2
215 -148 148 -147 147 148 148 147 147 0 213 0 212 213 0 212 0 150 150 c82
83 152 150 155 150 3 0 73 -67 155 -150z"/>
<path d="M2355 3770 l-140 -140 -202 0 -203 0 0 -202 0 -203 -145 -145 -145
-145 145 -145 145 -145 0 -197 0 -198 198 0 197 0 145 -145 144 -145 146 145
147 145 201 0 202 0 0 202 0 203 142 142 143 143 -143 143 -142 142 0 203 0
202 -203 0 -202 0 -140 140 c-77 77 -142 140 -145 140 -3 0 -68 -63 -145 -140z
m181 -270 c18 -1 18 -1 1 -11 -13 -7 -16 -17 -11 -32 6 -19 5 -20 -10 -8 -13
11 -19 11 -32 0 -14 -12 -16 -11 -12 6 2 11 -3 25 -12 32 -13 11 -12 12 8 13
14 0 22 6 22 18 1 16 1 16 14 0 7 -10 22 -18 32 -18z m-143 -50 c16 0 18 -3 9
-12 -7 -7 -12 -21 -12 -31 0 -16 -3 -17 -14 -8 -10 8 -16 9 -21 1 -10 -16 -25
-12 -18 5 3 9 -2 22 -13 30 -18 14 -18 14 4 15 12 0 26 8 30 18 6 16 7 16 10
0 2 -11 12 -18 25 -18z m274 0 c13 0 13 -3 3 -15 -7 -8 -10 -22 -6 -30 6 -17
-9 -21 -19 -5 -5 8 -11 7 -21 -1 -11 -9 -14 -8 -14 8 0 10 -5 24 -12 31 -9 9
-7 12 10 12 14 0 22 6 22 18 1 16 1 16 11 0 5 -10 17 -18 26 -18z m-126 -96
c18 -22 16 -79 -4 -102 -22 -24 -13 -32 32 -32 51 1 113 31 169 84 27 25 54
46 60 46 28 0 19 -25 -29 -78 -117 -128 -227 -318 -251 -434 -7 -32 -15 -58
-18 -58 -3 0 -11 26 -18 58 -25 116 -129 296 -251 435 -47 54 -56 77 -29 77 6
0 33 -21 60 -46 56 -53 118 -83 169 -84 45 0 54 8 32 32 -20 23 -22 80 -4 102
7 9 26 16 41 16 15 0 34 -7 41 -16z m-264 -219 c75 -78 135 -182 166 -291 l15
-51 -56 57 c-62 62 -140 100 -210 100 -60 0 -112 12 -112 25 0 8 16 10 55 7
56 -5 105 3 105 16 0 4 -15 14 -33 22 -20 10 -32 22 -32 35 0 31 40 31 69 0
l25 -27 7 26 c8 33 -21 84 -67 114 -40 27 -48 42 -22 42 10 0 50 -34 90 -75z
m563 70 c0 -2 -21 -18 -46 -36 -49 -33 -79 -87 -69 -120 8 -25 21 -24 28 1 6
22 53 38 69 22 16 -16 2 -41 -32 -56 -27 -11 -29 -14 -16 -25 11 -9 37 -12 81
-9 45 3 65 0 65 -8 0 -12 -53 -24 -112 -24 -70 0 -148 -38 -210 -100 l-56 -57
14 51 c30 106 92 214 167 292 48 49 80 74 95 74 12 0 22 -2 22 -5z m-804 -431
c-36 -69 -66 -128 -66 -130 0 -10 38 -1 155 36 193 61 269 54 319 -31 l19 -33
-30 22 c-17 12 -53 27 -79 33 -45 10 -62 8 -189 -26 -148 -39 -243 -58 -256
-49 -7 4 178 304 188 304 3 0 -25 -57 -61 -126z m983 -47 c44 -70 81 -130 81
-133 0 -10 -96 8 -249 48 -165 43 -193 43 -263 8 -45 -23 -49 -14 -10 22 64
60 114 62 279 12 126 -39 173 -50 173 -40 0 3 -25 57 -56 119 -31 61 -52 108
-46 102 5 -5 46 -67 91 -138z m-605 -101 c37 -24 28 -30 -17 -11 -50 21 -130
19 -205 -5 -96 -30 -108 -24 -17 10 95 34 192 37 239 6z m406 -6 c96 -34 89
-40 -10 -10 -78 24 -157 26 -207 5 -44 -19 -49 -19 -33 0 35 42 139 44 250 5z
m-481 -14 c-2 -2 -35 -6 -74 -9 -45 -3 -58 -3 -35 2 37 9 116 14 109 7z m416
-5 c53 -11 5 -12 -55 -2 -34 6 -37 9 -15 9 17 1 48 -3 70 -7z m-328 -41 c36
-28 111 -27 148 1 25 20 34 21 118 15 51 -3 128 -14 173 -24 78 -18 82 -18
125 1 l44 18 -34 -35 c-40 -42 -45 -42 -171 -16 -127 26 -214 26 -247 0 -19
-15 -41 -20 -83 -20 -42 0 -64 5 -83 20 -33 26 -120 26 -247 0 -126 -26 -131
-26 -171 16 l-34 35 47 -20 c39 -16 53 -18 85 -9 71 20 178 36 241 37 50 1 70
-3 89 -19z"/>
<path d="M2654 1611 c-29 -17 -74 -91 -74 -119 0 -8 23 -12 70 -12 l70 0 0 75
c0 84 -8 91 -66 56z"/>
<path d="M2360 1100 c-23 -23 -26 -49 -7 -74 16 -21 60 -24 82 -6 23 19 19 66
-7 84 -30 21 -44 20 -68 -4z"/>
<path d="M1927 1073 c-15 -15 -5 -23 28 -23 26 0 33 3 29 15 -6 15 -45 21 -57
8z"/>
<path d="M2947 1074 c-15 -15 -6 -54 14 -64 27 -15 51 5 47 39 -2 19 -9 27
-28 29 -14 2 -29 0 -33 -4z"/>
</g>
</svg>
